<svg style="height: 512px; width: 512px;" xmlns="http://www.w3.org/2000/svg" viewBox="0 0 512 512"><defs><filter id="shadow-2" height="300%" width="300%" x="-100%" y="-100%"><feFlood flood-color="rgba(0, 0, 0, 1)" result="flood"></feFlood><feComposite in="flood" in2="SourceGraphic" operator="atop" result="composite"></feComposite><feGaussianBlur in="composite" stdDeviation="8" result="blur"></feGaussianBlur><feOffset dx="6" dy="6" result="offset"></feOffset><feComposite in="SourceGraphic" in2="offset" operator="over"></feComposite></filter><filter id="shadow-3" height="300%" width="300%" x="-100%" y="-100%"><feFlood flood-color="rgba(0, 0, 0, 1)" result="flood"></feFlood><feComposite in="flood" in2="SourceGraphic" operator="atop" result="composite"></feComposite><feGaussianBlur in="composite" stdDeviation="8" result="blur"></feGaussianBlur><feOffset dx="6" dy="6" result="offset"></feOffset><feComposite in="SourceGraphic" in2="offset" operator="over"></feComposite></filter><filter id="shadow-4" height="300%" width="300%" x="-100%" y="-100%"><feFlood flood-color="rgba(0, 0, 0, 1)" result="flood"></feFlood><feComposite in="flood" in2="SourceGraphic" operator="atop" result="composite"></feComposite><feGaussianBlur in="composite" stdDeviation="3" result="blur"></feGaussianBlur><feOffset dx="6" dy="6" result="offset"></feOffset><feComposite in="SourceGraphic" in2="offset" operator="over"></feComposite></filter><filter id="shadow-5" height="300%" width="300%" x="-100%" y="-100%"><feFlood flood-color="rgba(0, 0, 0, 1)" result="flood"></feFlood><feComposite in="flood" in2="SourceGraphic" operator="atop" result="composite"></feComposite><feGaussianBlur in="composite" stdDeviation="3" result="blur"></feGaussianBlur><feOffset dx="6" dy="6" result="offset"></feOffset><feComposite in="SourceGraphic" in2="offset" operator="over"></feComposite></filter><filter id="shadow-6" height="300%" width="300%" x="-100%" y="-100%"><feFlood flood-color="rgba(0, 0, 0, 1)" result="flood"></feFlood><feComposite in="flood" in2="SourceGraphic" operator="atop" result="composite"></feComposite><feGaussianBlur in="composite" stdDeviation="8" result="blur"></feGaussianBlur><feOffset dx="3" dy="3" result="offset"></feOffset><feComposite in="SourceGraphic" in2="offset" operator="over"></feComposite></filter><filter id="shadow-7" height="300%" width="300%" x="-100%" y="-100%"><feFlood flood-color="rgba(0, 0, 0, 1)" result="flood"></feFlood><feComposite in="flood" in2="SourceGraphic" operator="atop" result="composite"></feComposite><feGaussianBlur in="composite" stdDeviation="8" result="blur"></feGaussianBlur><feOffset dx="3" dy="3" result="offset"></feOffset><feComposite in="SourceGraphic" in2="offset" operator="over"></feComposite></filter><filter id="shadow-8" height="300%" width="300%" x="-100%" y="-100%"><feFlood flood-color="rgba(0, 0, 0, 1)" result="flood"></feFlood><feComposite in="flood" in2="SourceGraphic" operator="atop" result="composite"></feComposite><feGaussianBlur in="composite" stdDeviation="8" result="blur"></feGaussianBlur><feOffset dx="3" dy="3" result="offset"></feOffset><feComposite in="SourceGraphic" in2="offset" operator="over"></feComposite></filter><filter id="shadow-9" height="300%" width="300%" x="-100%" y="-100%"><feFlood flood-color="rgba(0, 0, 0, 1)" result="flood"></feFlood><feComposite in="flood" in2="SourceGraphic" operator="atop" result="composite"></feComposite><feGaussianBlur in="composite" stdDeviation="8" result="blur"></feGaussianBlur><feOffset dx="3" dy="3" result="offset"></feOffset><feComposite in="SourceGraphic" in2="offset" operator="over"></feComposite></filter><filter id="shadow-10" height="300%" width="300%" x="-100%" y="-100%"><feFlood flood-color="rgba(0, 0, 0, 1)" result="flood"></feFlood><feComposite in="flood" in2="SourceGraphic" operator="atop" result="composite"></feComposite><feGaussianBlur in="composite" stdDeviation="8" result="blur"></feGaussianBlur><feOffset dx="3" dy="3" result="offset"></feOffset><feComposite in="SourceGraphic" in2="offset" operator="over"></feComposite></filter><filter id="shadow-11" height="300%" width="300%" x="-100%" y="-100%"><feFlood flood-color="rgba(0, 0, 0, 1)" result="flood"></feFlood><feComposite in="flood" in2="SourceGraphic" operator="atop" result="composite"></feComposite><feGaussianBlur in="composite" stdDeviation="8" result="blur"></feGaussianBlur><feOffset dx="3" dy="3" result="offset"></feOffset><feComposite in="SourceGraphic" in2="offset" operator="over"></feComposite></filter><filter id="shadow-12" height="300%" width="300%" x="-100%" y="-100%"><feFlood flood-color="rgba(0, 0, 0, 1)" result="flood"></feFlood><feComposite in="flood" in2="SourceGraphic" operator="atop" result="composite"></feComposite><feGaussianBlur in="composite" stdDeviation="8" result="blur"></feGaussianBlur><feOffset dx="3" dy="3" result="offset"></feOffset><feComposite in="SourceGraphic" in2="offset" operator="over"></feComposite></filter><filter id="shadow-13" height="300%" width="300%" x="-100%" y="-100%"><feFlood flood-color="rgba(0, 0, 0, 1)" result="flood"></feFlood><feComposite in="flood" in2="SourceGraphic" operator="atop" result="composite"></feComposite><feGaussianBlur in="composite" stdDeviation="8" result="blur"></feGaussianBlur><feOffset dx="3" dy="3" result="offset"></feOffset><feComposite in="SourceGraphic" in2="offset" operator="over"></feComposite></filter><linearGradient x1="0" x2="1" y1="0" y2="1" id="lorc-dozen-gradient-0"><stop offset="0%" stop-color="#a8a8a8" stop-opacity="1"></stop><stop offset="100%" stop-color="#000000" stop-opacity="1"></stop></linearGradient></defs><rect fill="url(#lorc-dozen-gradient-0)" height="512" width="512" rx="32" ry="32"></rect><g class="" style="" transform="translate(-1,-1)"><g><path d="M64.865 21.293C53.385 21.293 44.08 31.989 44.08 45.18C44.08 53.9 48.148 61.525 54.22 65.695L15.308 65.695L15.308 84.383L55.536 84.383L55.536 107.748L30.976 157.17L47.712 165.488L64.882 130.941L82.049 165.489L98.785 157.171L74.225 107.749L74.225 84.383L114.453 84.383L114.453 65.695L75.51 65.695C81.582 61.525 85.65 53.899 85.65 45.18C85.65 31.987 76.345 21.293 64.865 21.293Z" class="" fill="#9800b7" fill-opacity="1" filter="url(#shadow-2)" stroke="#000000" stroke-opacity="1" stroke-width="2"></path><path d="M191.76 21.293C180.28 21.293 170.975 31.989 170.975 45.18C170.975 53.9 175.043 61.525 181.115 65.695L142.2 65.695L142.2 84.383L182.43 84.383L182.43 107.748L157.87 157.17L174.605 165.488L191.773 130.941L208.941 165.489L225.679 157.171L201.119 107.749L201.119 84.383L241.347 84.383L241.347 65.695L202.405 65.695C208.478 61.525 212.545 53.899 212.545 45.18C212.545 31.987 203.24 21.293 191.761 21.293Z" class="" fill="#a60014" stroke="#000000" stroke-opacity="1" stroke-width="2" filter="url(#shadow-3)" fill-opacity="1"></path><path d="M315.004 21.293C303.524 21.293 294.219 31.989 294.219 45.18C294.219 53.9 298.286 61.525 304.359 65.695L265.446 65.695L265.446 84.383L305.673 84.383L305.673 107.748L281.113 157.17L297.849 165.488L315.019 130.938L332.187 165.488L348.921 157.17L324.361 107.752L324.361 84.382L364.589 84.382L364.589 65.696L325.649 65.696C331.722 61.526 335.789 53.9 335.789 45.181C335.789 31.988 326.482 21.294 315.003 21.294Z" class="" fill="#b7a589" fill-opacity="1" filter="url(#shadow-4)" stroke="#000000" stroke-opacity="1" stroke-width="2"></path><path d="M437.168 21.293C425.688 21.293 416.383 31.989 416.383 45.18C416.383 53.9 420.451 61.525 426.523 65.695L387.61 65.695L387.61 84.383L427.838 84.383L427.838 107.748L403.278 157.17L420.014 165.488L437.182 130.941L454.35 165.489L471.086 157.171L446.526 107.753L446.526 84.383L486.754 84.383L486.754 65.696L447.814 65.696C453.887 61.526 457.954 53.9 457.954 45.181C457.954 31.988 448.647 21.294 437.168 21.294Z" class="" fill="#48baff" fill-opacity="1" filter="url(#shadow-5)" stroke="#000000" stroke-opacity="1" stroke-width="2"></path><path d="M64.865 187.153C53.385 187.153 44.08 197.85 44.08 211.041C44.08 219.761 48.147 227.385 54.22 231.556L15.306 231.556L15.306 250.246L55.534 250.246L55.534 273.61L30.974 323.03L47.71 331.348L64.88 296.8L82.047 331.348L98.783 323.031L74.223 273.611L74.223 250.245L114.451 250.245L114.451 231.555L75.513 231.555C81.583 227.385 85.651 219.761 85.651 211.042C85.651 197.85 76.346 187.156 64.866 187.156Z" class="" fill="#545b4a" fill-opacity="1" filter="url(#shadow-6)" stroke="#000000" stroke-opacity="1" stroke-width="2"></path><path d="M191.76 187.153C180.28 187.153 170.975 197.85 170.975 211.041C170.975 219.761 175.042 227.385 181.113 231.556L142.2 231.556L142.2 250.246L182.43 250.246L182.43 273.61L157.87 323.03L174.605 331.348L191.773 296.801L208.941 331.349L225.679 323.032L201.119 273.612L201.119 250.246L241.347 250.246L241.347 231.556L202.407 231.556C208.479 227.386 212.547 219.762 212.547 211.043C212.547 197.851 203.24 187.157 191.761 187.157Z" class="" fill="#50e3c2" fill-opacity="1" stroke="#000000" stroke-opacity="1" stroke-width="2" filter="url(#shadow-7)"></path><path d="M315.004 187.153C303.524 187.153 294.219 197.85 294.219 211.041C294.219 219.761 298.285 227.385 304.356 231.556L265.446 231.556L265.446 250.246L305.673 250.246L305.673 273.61L281.113 323.03L297.849 331.348L315.019 296.801L332.187 331.349L348.921 323.032L324.361 273.615L324.361 250.245L364.589 250.245L364.589 231.557L325.651 231.557C331.723 227.387 335.791 219.762 335.791 211.043C335.791 197.851 326.481 187.157 315.003 187.157Z" class="" fill="#fcb700" fill-opacity="1" stroke="#000000" stroke-opacity="1" stroke-width="2" filter="url(#shadow-8)"></path><path d="M437.168 187.153C425.688 187.153 416.383 197.85 416.383 211.041C416.383 219.761 420.45 227.385 426.521 231.556L387.611 231.556L387.611 250.246L427.839 250.246L427.839 273.61L403.279 323.03L420.015 331.348L437.183 296.801L454.351 331.349L471.087 323.032L446.527 273.615L446.527 250.245L486.755 250.245L486.755 231.557L447.817 231.557C453.889 227.387 457.957 219.762 457.957 211.043C457.957 197.851 448.647 187.157 437.169 187.157Z" class="" fill="#7ed321" fill-opacity="1" stroke="#000000" stroke-opacity="1" stroke-width="2" filter="url(#shadow-9)"></path><path d="M64.865 352.43C53.385 352.43 44.08 363.125 44.08 376.316C44.08 385.036 48.147 392.661 54.22 396.832L15.306 396.832L15.306 415.522L55.534 415.522L55.534 438.887L30.974 488.309L47.71 496.624L64.88 462.077L82.047 496.624L98.783 488.308L74.223 438.885L74.223 415.52L114.451 415.52L114.451 396.832L75.513 396.832C81.583 392.662 85.651 385.035 85.651 376.316C85.651 363.124 76.346 352.43 64.866 352.43Z" class="selected" fill="#242bab" fill-opacity="1" filter="url(#shadow-10)" stroke="#000000" stroke-opacity="1" stroke-width="2"></path><path d="M191.76 352.43C180.28 352.43 170.975 363.125 170.975 376.316C170.975 385.036 175.042 392.661 181.113 396.832L142.2 396.832L142.2 415.522L182.43 415.522L182.43 438.887L157.87 488.309L174.605 496.624L191.773 462.077L208.941 496.624L225.679 488.308L201.119 438.885L201.119 415.52L241.347 415.52L241.347 396.832L202.407 396.832C208.479 392.662 212.547 385.035 212.547 376.316C212.547 363.124 203.24 352.43 191.761 352.43Z" class="" fill="#ffe0af" fill-opacity="1" filter="url(#shadow-11)" stroke="#000000" stroke-opacity="1" stroke-width="2"></path><path d="M315.004 352.43C303.524 352.43 294.219 363.125 294.219 376.316C294.219 385.036 298.285 392.661 304.356 396.832L265.446 396.832L265.446 415.522L305.673 415.522L305.673 438.887L281.113 488.309L297.849 496.624L315.019 462.077L332.187 496.624L348.921 488.308L324.361 438.888L324.361 415.518L364.589 415.518L364.589 396.83L325.651 396.83C331.723 392.66 335.791 385.033 335.791 376.314C335.791 363.122 326.481 352.428 315.003 352.428Z" class="" fill="#fc88fc" fill-opacity="1" filter="url(#shadow-12)" stroke="#000000" stroke-opacity="1" stroke-width="2"></path><path d="M437.168 352.43C425.688 352.43 416.383 363.125 416.383 376.316C416.383 385.036 420.45 392.661 426.521 396.832L387.611 396.832L387.611 415.522L427.839 415.522L427.839 438.887L403.279 488.309L420.015 496.624L437.183 462.077L454.351 496.624L471.087 488.308L446.527 438.888L446.527 415.518L486.755 415.518L486.755 396.83L447.817 396.83C453.889 392.66 457.957 385.033 457.957 376.314C457.957 363.122 448.647 352.428 437.169 352.428Z" class="" fill="#ececec" fill-opacity="1" filter="url(#shadow-13)" stroke="#000000" stroke-opacity="1" stroke-width="2"></path></g></g></svg>