<svg style="height: 512px; width: 512px;" xmlns="http://www.w3.org/2000/svg" viewBox="0 0 512 512"><defs><filter id="shadow-2" height="300%" width="300%" x="-100%" y="-100%"><feFlood flood-color="rgba(0, 0, 0, 1)" result="flood"></feFlood><feComposite in="flood" in2="SourceGraphic" operator="atop" result="composite"></feComposite><feGaussianBlur in="composite" stdDeviation="8" result="blur"></feGaussianBlur><feOffset dx="6" dy="6" result="offset"></feOffset><feComposite in="SourceGraphic" in2="offset" operator="over"></feComposite></filter><linearGradient x1="0" x2="1" y1="0" y2="1" id="caro-asercion-goblin-gradient-0"><stop offset="0%" stop-color="#a8a8a8" stop-opacity="1"></stop><stop offset="100%" stop-color="#000000" stop-opacity="1"></stop></linearGradient><linearGradient x1="0" x2="0" y1="0" y2="1" id="caro-asercion-goblin-gradient-3"><stop offset="0%" stop-color="#000000" stop-opacity="1"></stop><stop offset="100%" stop-color="#640400" stop-opacity="1"></stop></linearGradient><linearGradient x1="0" x2="1" y1="1" y2="0" id="caro-asercion-goblin-gradient-6"><stop offset="0%" stop-color="#fcb700" stop-opacity="1"></stop><stop offset="100%" stop-color="#ffffff" stop-opacity="1"></stop></linearGradient><linearGradient x1="0" x2="1" y1="1" y2="0" id="caro-asercion-goblin-gradient-7"><stop offset="0%" stop-color="#fcb700" stop-opacity="1"></stop><stop offset="100%" stop-color="#ffffff" stop-opacity="1"></stop></linearGradient></defs><rect fill="url(#caro-asercion-goblin-gradient-0)" height="512" width="512" rx="32" ry="32"></rect><g class="" style="" transform="translate(0,0)"><g><path d="M256 415L113.1 368.3L123.3 318.6C123.3 318.6 -3.386 356.1 26 71.4L149.6 220.3L256 200.1L362.4 220.3L486 71.4C515.4 356.1 388.7 318.6 388.7 318.6L398.9 368.3Z" class="" fill="#5a8429" fill-opacity="1" filter="url(#shadow-2)"></path><path d="M256 316.6L220.2 318.4L200.5 353.9L173.5 320.6L152.7 321.7C156.2 360.3 193.9 376.5 247 382.6L259.4 357.8L284.8 379.7C327.3 371.9 356.2 355.3 359.3 321.7L337.2 320.6L300.9 352L288.2 318.2Z" class="" fill="url(#caro-asercion-goblin-gradient-3)" stroke="#000000" stroke-opacity="1" stroke-width="2"></path><path d="M439.4 213.2C449.8 281 403.3 285.1 403.3 285.1L406 297.3C406 297.3 480.2 300.5 467.8 135.2L382.7 243.1Z" class="" fill="#294c00" stroke="#417505" stroke-opacity="1" stroke-width="4" fill-opacity="1"></path><path d="M129.3 243.1L44.24 135.2C31.75 300.5 106 297.3 106 297.3L108.7 285.1C108.7 285.1 62.24 281 72.61 213.2Z" class="" fill="#294c00" fill-opacity="1" stroke="#417505" stroke-opacity="1" stroke-width="4"></path><path d="M275.3 285.2L306.7 285.7L318.8 272.6L334.1 285.8L365.4 286.2C356.2 243.1 291.5 217.2 275.3 285.2Z" class="" fill="url(#caro-asercion-goblin-gradient-6)" stroke="#294c00" stroke-opacity="1" stroke-width="4"></path><path d="M146.6 286.2L177.9 285.8L193.2 272.6L205.3 285.7L236.7 285.2C220.5 217.2 155.8 243.1 146.6 286.2Z" class="selected" fill="url(#caro-asercion-goblin-gradient-7)" stroke="#294c00" stroke-opacity="1" stroke-width="4"></path></g></g></svg>