<svg style="height: 512px; width: 512px;" xmlns="http://www.w3.org/2000/svg" viewBox="0 0 512 512"><defs><filter id="shadow-2" height="300%" width="300%" x="-100%" y="-100%"><feFlood flood-color="rgba(189, 16, 224, 1)" result="flood"></feFlood><feComposite in="flood" in2="SourceGraphic" operator="atop" result="composite"></feComposite><feGaussianBlur in="composite" stdDeviation="3" result="blur"></feGaussianBlur><feOffset dx="2" dy="2" result="offset"></feOffset><feComposite in="SourceGraphic" in2="offset" operator="over"></feComposite></filter><filter id="shadow-3" height="300%" width="300%" x="-100%" y="-100%"><feFlood flood-color="rgba(189, 16, 224, 1)" result="flood"></feFlood><feComposite in="flood" in2="SourceGraphic" operator="atop" result="composite"></feComposite><feGaussianBlur in="composite" stdDeviation="3" result="blur"></feGaussianBlur><feOffset dx="2" dy="2" result="offset"></feOffset><feComposite in="SourceGraphic" in2="offset" operator="over"></feComposite></filter><filter id="shadow-4" height="300%" width="300%" x="-100%" y="-100%"><feFlood flood-color="rgba(189, 16, 224, 1)" result="flood"></feFlood><feComposite in="flood" in2="SourceGraphic" operator="atop" result="composite"></feComposite><feGaussianBlur in="composite" stdDeviation="3" result="blur"></feGaussianBlur><feOffset dx="2" dy="2" result="offset"></feOffset><feComposite in="SourceGraphic" in2="offset" operator="over"></feComposite></filter><filter id="shadow-5" height="300%" width="300%" x="-100%" y="-100%"><feFlood flood-color="rgba(0, 0, 0, 1)" result="flood"></feFlood><feComposite in="flood" in2="SourceGraphic" operator="atop" result="composite"></feComposite><feGaussianBlur in="composite" stdDeviation="3" result="blur"></feGaussianBlur><feOffset dx="2" dy="2" result="offset"></feOffset><feComposite in="SourceGraphic" in2="offset" operator="over"></feComposite></filter><filter id="shadow-6" height="300%" width="300%" x="-100%" y="-100%"><feFlood flood-color="rgba(0, 0, 0, 1)" result="flood"></feFlood><feComposite in="flood" in2="SourceGraphic" operator="atop" result="composite"></feComposite><feGaussianBlur in="composite" stdDeviation="3" result="blur"></feGaussianBlur><feOffset dx="2" dy="2" result="offset"></feOffset><feComposite in="SourceGraphic" in2="offset" operator="over"></feComposite></filter><filter id="shadow-12" height="300%" width="300%" x="-100%" y="-100%"><feFlood flood-color="rgba(0, 0, 0, 1)" result="flood"></feFlood><feComposite in="flood" in2="SourceGraphic" operator="atop" result="composite"></feComposite><feGaussianBlur in="composite" stdDeviation="8" result="blur"></feGaussianBlur><feOffset dx="3" dy="6" result="offset"></feOffset><feComposite in="SourceGraphic" in2="offset" operator="over"></feComposite></filter><filter id="shadow-13" height="300%" width="300%" x="-100%" y="-100%"><feFlood flood-color="rgba(0, 0, 0, 1)" result="flood"></feFlood><feComposite in="flood" in2="SourceGraphic" operator="atop" result="composite"></feComposite><feGaussianBlur in="composite" stdDeviation="8" result="blur"></feGaussianBlur><feOffset dx="3" dy="6" result="offset"></feOffset><feComposite in="SourceGraphic" in2="offset" operator="over"></feComposite></filter><filter id="shadow-15" height="300%" width="300%" x="-100%" y="-100%"><feFlood flood-color="rgba(0, 0, 0, 1)" result="flood"></feFlood><feComposite in="flood" in2="SourceGraphic" operator="atop" result="composite"></feComposite><feGaussianBlur in="composite" stdDeviation="8" result="blur"></feGaussianBlur><feOffset dx="6" dy="6" result="offset"></feOffset><feComposite in="SourceGraphic" in2="offset" operator="over"></feComposite></filter><linearGradient x1="0" x2="1" y1="0" y2="1" id="delapouite-wizard-face-gradient-0"><stop offset="0%" stop-color="#a8a8a8" stop-opacity="1"></stop><stop offset="100%" stop-color="#000000" stop-opacity="1"></stop></linearGradient><linearGradient x1="0" x2="1" y1="1" y2="0" id="delapouite-wizard-face-gradient-12"><stop offset="0%" stop-color="#e8e8e8" stop-opacity="1"></stop><stop offset="100%" stop-color="#c9c9c9" stop-opacity="1"></stop></linearGradient><linearGradient x1="0" x2="1" y1="0" y2="1" id="delapouite-wizard-face-gradient-13"><stop offset="0%" stop-color="#c9c9c9" stop-opacity="1"></stop><stop offset="100%" stop-color="#e8e8e8" stop-opacity="1"></stop></linearGradient><linearGradient x1="0" x2="0" y1="0" y2="1" id="delapouite-wizard-face-gradient-15"><stop offset="0%" stop-color="#c9c9c9" stop-opacity="1"></stop><stop offset="100%" stop-color="#e8e8e8" stop-opacity="1"></stop></linearGradient></defs><rect fill="url(#delapouite-wizard-face-gradient-0)" height="512" width="512" rx="32" ry="32"></rect><g class="" style="" transform="translate(0,0)"><g><path d="M256.3 19.42C204 57.2 177.2 111 152.5 160.7C195.9 136.1 254.2 127.8 279.4 132C215.6 142.6 171.4 157.8 135 196.3C132.8 200.8 130.9 204.6 128.6 209.4C244 181.6 263 182.4 379.5 208.7C368 158.6 343 126.6 304 65.83C345.9 118.4 428.1 208.1 424.3 190.6C401.4 85.73 324.2 23.49 256.3 19.42Z" class="" fill="#7e0297" fill-opacity="1" filter="url(#shadow-2)"></path><path d="M88 231.3C57 238.7 34.1 248.8 25.2 258C26.1 269.7 31.9 280.1 42.7 290C54.5 300.8 72.3 310.4 94 318.1C96.69 319 99.39 319.9 102.1 320.8C93.7 309.8 90.9 294.5 89.1 279.7C89.1 264.3 86.1 246.2 88 231.3Z" class="" fill="#7e0297" fill-opacity="1" filter="url(#shadow-3)"></path><path d="M424 231.3C426.2 247.5 424.6 265.8 422.9 279.7C421.1 294.5 418.3 309.8 409.9 320.8C430.1 313.8 454.5 303.2 469.3 290C480.1 280.1 485.9 269.7 486.8 258C477.9 248.8 455.1 238.7 424 231.3Z" class="" fill="#7e0297" fill-opacity="1" filter="url(#shadow-4)"></path><path d="M149.6 231.6L142.6 245.6L241.4 245.6L234.4 231.6Z" class="" fill="#c9c9c9" fill-opacity="1" filter="url(#shadow-5)" stroke="#4a4a4a" stroke-opacity="1" stroke-width="1"></path><path d="M277.6 231.6L270.6 245.6L369.4 245.6L362.4 231.6Z" class="" fill="#c9c9c9" fill-opacity="1" filter="url(#shadow-6)" stroke="#4a4a4a" stroke-opacity="1" stroke-width="1"></path><path d="M119 241C114.3 242.3 109.6 243.6 105 245.1C106 265 105.6 292.7 116.6 309.6L119 309.6Z" class="" fill="#c9c9c9" fill-opacity="1" stroke="#4a4a4a" stroke-opacity="1" stroke-width="2"></path><path d="M393 241L393 309.6L395.4 309.6C405.9 288.9 406.7 267.8 407 245.1C402.4 243.6 397.7 242.3 393 241Z" class="" fill="#c9c9c9" fill-opacity="1" stroke="#4a4a4a" stroke-opacity="1" stroke-width="2"></path><path d="M137.1 263.6C136.8 282.4 139.1 303.1 143.3 319.3C164.4 305.2 185.2 293.6 208 293.6C211.2 293.6 214.4 293.8 217.4 294L222.6 278.3C217 284 209.7 287.2 199.4 286.8C174.2 286 165.5 275.7 161.9 263.6Z" class="" fill="#caac77" fill-opacity="1" stroke="#caac77" stroke-opacity="1" stroke-width="20"></path><path d="M246.5 263.6L234.1 300.8L256 328.2L277.9 300.8L265.5 263.6Z" class="selected" fill="#caa077" fill-opacity="1" stroke="#caa077" stroke-opacity="1" stroke-width="20"></path><path d="M350.1 263.6C346.5 275.7 337.8 286 312.6 286.8C302.3 287.2 295 284 289.4 278.3L294.6 294C297.7 293.7 300.9 293.6 304 293.6C326.8 293.6 347.6 305.2 368.7 319.3C373.1 299.2 375.5 281.7 374.9 263.6Z" class="" fill="#c1a570" fill-opacity="1" stroke="#c1a570" stroke-opacity="1" stroke-width="20"></path><path d="M208 311.6C188 311.6 165 326.1 139.1 344C119.9 357.3 99.2 372.1 75.8 382.4C104.4 388.5 141.6 387.2 174 379.8C195.3 375 214.5 367.7 227.7 359.3C236.2 353.8 241.8 348.2 244.7 342.9L220.5 312.6C216.8 312 212.6 311.6 208 311.6Z" class="" fill="url(#delapouite-wizard-face-gradient-12)" filter="url(#shadow-12)"></path><path d="M304 311.6C299.4 311.6 295.2 312 291.5 312.6L267.3 342.9C270.2 348.2 275.8 353.8 284.3 359.3C297.5 367.7 316.7 375 338 379.8C370.4 387.2 407.6 388.5 436.2 382.4C412.8 372.1 392.1 357.3 372.9 344C347 326.1 324 311.6 304 311.6Z" class="" fill="url(#delapouite-wizard-face-gradient-13)" filter="url(#shadow-13)"></path><path d="M256 358.3C251.4 364 245.4 369.1 238.6 373.6L273.4 373.6C266.6 369.1 260.6 364 256 358.3Z" class="" fill="#ca8677" fill-opacity="1"></path><path d="M199.3 391.6C192.4 393.8 185.3 395.7 178 397.4C168.5 399.6 158.8 401.3 149.1 402.5C155.2 422.1 163.2 442 172.1 460.7L172.2 460.9C176.5 454.2 181.6 447.8 185.7 441.1C183.3 455 182.4 469 183.4 482.9C185.1 486.2 186.9 489.4 188.7 492.6L323.3 492.6C326.9 486.3 330.3 479.9 333.6 473.4C339 451.5 337.5 430.6 339 409.2C342.1 420.7 345.1 432.2 347.5 443.9C353.3 430.3 358.6 416.3 362.9 402.5C353.2 401.3 343.5 399.6 334 397.4C326.7 395.7 319.6 393.8 312.7 391.6Z" class="" fill="url(#delapouite-wizard-face-gradient-15)" filter="url(#shadow-15)"></path></g></g></svg>